<?xml version="1.0" encoding="iso-8859-1"?>
<!-- Generator: Adobe Illustrator 17.1.0, SVG Export Plug-In . SVG Version: 6.00 Build 0)  -->
<!DOCTYPE svg PUBLIC "-//W3C//DTD SVG 1.1//EN" "http://www.w3.org/Graphics/SVG/1.1/DTD/svg11.dtd">
<svg version="1.1" id="Capa_1" xmlns="http://www.w3.org/2000/svg" xmlns:xlink="http://www.w3.org/1999/xlink" x="0px" y="0px"
	 viewBox="0 0 200 200" style="enable-background:new 0 0 200 200;" xml:space="preserve">
<g>
	<path d="M190.619,155.849l-44.604-37.844c-1.062-0.885-2.362-1.363-3.682-1.363c-1.844,0-3.6,0.929-4.697,2.486
		c-5.076,7.199-11.3,13.427-18.5,18.508c-1.34,0.946-2.228,2.392-2.435,3.968c-0.207,1.578,0.254,3.138,1.299,4.392l37.867,44.644
		c2.566,3.079,6.292,4.856,10.206,4.856c3.519,0,6.87-1.413,9.437-3.98l16.007-16.007c2.727-2.728,4.136-6.288,3.966-10.026
		C195.312,161.742,193.585,158.321,190.619,155.849z"/>
	<path d="M74.377,144.25c18.929,0,36.727-7.372,50.114-20.759c13.387-13.387,20.759-31.184,20.759-50.114
		c0-39.079-31.793-70.873-70.873-70.873S3.505,34.298,3.505,73.377S35.298,144.25,74.377,144.25z M26.472,73.377
		c0-26.415,21.49-47.905,47.905-47.905s47.905,21.49,47.905,47.905c0,12.775-4.988,24.799-14.047,33.857
		c-9.059,9.058-21.083,14.047-33.858,14.047C47.962,121.282,26.472,99.792,26.472,73.377z"/>
</g>
</svg>
